<?xml version="1.0" encoding="UTF-8" standalone="no"?>
<!-- Created with Inkscape (http://www.inkscape.org/) -->

<svg
   viewBox="0 0 200.00019 46.294408"
   version="1.1"
   id="svg5"
   xml:space="preserve"
   inkscape:version="1.2.2 (732a01da63, 2022-12-09, custom)"
   sodipodi:docname="logo-Clickonaute.svg"
   xmlns:inkscape="http://www.inkscape.org/namespaces/inkscape"
   xmlns:sodipodi="http://sodipodi.sourceforge.net/DTD/sodipodi-0.dtd"
   xmlns:xlink="http://www.w3.org/1999/xlink"
   xmlns="http://www.w3.org/2000/svg"
   xmlns:svg="http://www.w3.org/2000/svg"><sodipodi:namedview
     id="namedview7"
     pagecolor="#ffffff"
     bordercolor="#000000"
     borderopacity="0.25"
     inkscape:showpageshadow="2"
     inkscape:pageopacity="0.0"
     inkscape:pagecheckerboard="0"
     inkscape:deskcolor="#d1d1d1"
     inkscape:document-units="mm"
     showgrid="false"
     showguides="false"
     inkscape:zoom="2.3786088"
     inkscape:cx="472.75533"
     inkscape:cy="82.821522"
     inkscape:window-width="2132"
     inkscape:window-height="1169"
     inkscape:window-x="0"
     inkscape:window-y="0"
     inkscape:window-maximized="1"
     inkscape:current-layer="layer2" /><defs
     id="defs2"><linearGradient
       inkscape:collect="always"
       id="linearGradient12087"><stop
         style="stop-color:#fafafa;stop-opacity:1;"
         offset="0.42596632"
         id="stop12083" /><stop
         style="stop-color:#000000;stop-opacity:0;"
         offset="1"
         id="stop12085" /></linearGradient><inkscape:path-effect
       effect="powerstroke"
       id="path-effect8917"
       is_visible="true"
       lpeversion="1"
       offset_points="1.1620406,1.6685174"
       not_jump="true"
       sort_points="true"
       interpolator_type="CentripetalCatmullRom"
       interpolator_beta="0.75"
       start_linecap_type="round"
       linejoin_type="spiro"
       miter_limit="4"
       scale_width="1"
       end_linecap_type="round" /><inkscape:path-effect
       effect="simplify"
       id="path-effect8915"
       is_visible="true"
       lpeversion="1"
       steps="1"
       threshold="0.0047745358"
       smooth_angles="0"
       helper_size="0"
       simplify_individual_paths="false"
       simplify_just_coalesce="false"
       step="1" /><linearGradient
       inkscape:collect="always"
       id="linearGradient5714"><stop
         style="stop-color:#a5a5a5;stop-opacity:1;"
         offset="0"
         id="stop5710" /><stop
         style="stop-color:#e1e1e1;stop-opacity:1;"
         offset="0.91828483"
         id="stop5712" /></linearGradient><linearGradient
       inkscape:collect="always"
       id="linearGradient5690"><stop
         style="stop-color:#e7e7e7;stop-opacity:1;"
         offset="0.85016257"
         id="stop5686" /><stop
         style="stop-color:#a5a5a5;stop-opacity:1;"
         offset="1"
         id="stop5688" /></linearGradient><linearGradient
       inkscape:collect="always"
       id="linearGradient5680"><stop
         style="stop-color:#dddddd;stop-opacity:1;"
         offset="0.29351065"
         id="stop5676" /></linearGradient><inkscape:path-effect
       effect="skeletal"
       id="path-effect1308"
       is_visible="true"
       lpeversion="1"
       pattern="M 0,4.9921386 C 0,2.2364781 2.2364781,0 4.9921386,0 c 2.7556606,0 4.9921387,2.2364781 4.9921387,4.9921386 0,2.7556606 -2.2364781,4.9921387 -4.9921387,4.9921387 C 2.2364781,9.9842773 0,7.7477992 0,4.9921386 Z"
       copytype="single_stretched"
       prop_scale="-1.7016681"
       scale_y_rel="false"
       spacing="0"
       normal_offset="0"
       tang_offset="0"
       prop_units="false"
       vertical_pattern="false"
       hide_knot="false"
       fuse_tolerance="0" /><inkscape:path-effect
       effect="powerstroke"
       id="path-effect1242"
       is_visible="true"
       lpeversion="1"
       offset_points="0.92881845,3.3370348"
       not_jump="true"
       sort_points="true"
       interpolator_type="CentripetalCatmullRom"
       interpolator_beta="0.75"
       start_linecap_type="round"
       linejoin_type="spiro"
       miter_limit="4"
       scale_width="1"
       end_linecap_type="round" /><inkscape:path-effect
       effect="simplify"
       id="path-effect1240"
       is_visible="true"
       lpeversion="1"
       steps="1"
       threshold="0.0047745358"
       smooth_angles="0"
       helper_size="0"
       simplify_individual_paths="false"
       simplify_just_coalesce="false"
       step="1" /><inkscape:path-effect
       effect="powerstroke"
       id="path-effect1227"
       is_visible="true"
       lpeversion="1"
       offset_points="1.1687569,3.3370348"
       not_jump="true"
       sort_points="true"
       interpolator_type="CentripetalCatmullRom"
       interpolator_beta="0.75"
       start_linecap_type="round"
       linejoin_type="spiro"
       miter_limit="4"
       scale_width="1"
       end_linecap_type="round" /><inkscape:path-effect
       effect="simplify"
       id="path-effect1225"
       is_visible="true"
       lpeversion="1"
       steps="1"
       threshold="0.0047745358"
       smooth_angles="0"
       helper_size="0"
       simplify_individual_paths="false"
       simplify_just_coalesce="false"
       step="1" /><inkscape:path-effect
       effect="powerstroke"
       id="path-effect5591"
       is_visible="true"
       lpeversion="1"
       offset_points="0.56872256,3.3370347"
       not_jump="true"
       sort_points="true"
       interpolator_type="CentripetalCatmullRom"
       interpolator_beta="0.75"
       start_linecap_type="round"
       linejoin_type="spiro"
       miter_limit="4"
       scale_width="1"
       end_linecap_type="round" /><inkscape:path-effect
       effect="simplify"
       id="path-effect5589"
       is_visible="true"
       lpeversion="1"
       steps="1"
       threshold="0.0047745358"
       smooth_angles="0"
       helper_size="0"
       simplify_individual_paths="false"
       simplify_just_coalesce="false"
       step="1" /><inkscape:path-effect
       effect="powerstroke"
       id="path-effect5488"
       is_visible="true"
       lpeversion="1"
       offset_points="3.1483777,0.41712934"
       not_jump="true"
       sort_points="true"
       interpolator_type="CentripetalCatmullRom"
       interpolator_beta="0.75"
       start_linecap_type="round"
       linejoin_type="spiro"
       miter_limit="4"
       scale_width="1"
       end_linecap_type="round" /><inkscape:path-effect
       effect="simplify"
       id="path-effect5486"
       is_visible="true"
       lpeversion="1"
       steps="1"
       threshold="0.0047745358"
       smooth_angles="0"
       helper_size="0"
       simplify_individual_paths="false"
       simplify_just_coalesce="false"
       step="1" /><inkscape:path-effect
       effect="powerstroke"
       id="path-effect5479"
       is_visible="true"
       lpeversion="1"
       offset_points="0.7396837,0.41712934"
       not_jump="true"
       sort_points="true"
       interpolator_type="CentripetalCatmullRom"
       interpolator_beta="0.75"
       start_linecap_type="round"
       linejoin_type="spiro"
       miter_limit="4"
       scale_width="1"
       end_linecap_type="round" /><inkscape:path-effect
       effect="simplify"
       id="path-effect5477"
       is_visible="true"
       lpeversion="1"
       steps="1"
       threshold="0.0047745358"
       smooth_angles="0"
       helper_size="0"
       simplify_individual_paths="false"
       simplify_just_coalesce="false"
       step="1" /><inkscape:path-effect
       effect="powerstroke"
       id="path-effect5472"
       is_visible="true"
       lpeversion="1"
       offset_points="0.98259459,0.41712934"
       not_jump="true"
       sort_points="true"
       interpolator_type="CentripetalCatmullRom"
       interpolator_beta="0.75"
       start_linecap_type="round"
       linejoin_type="spiro"
       miter_limit="4"
       scale_width="1"
       end_linecap_type="round" /><inkscape:path-effect
       effect="simplify"
       id="path-effect5470"
       is_visible="true"
       lpeversion="1"
       steps="1"
       threshold="0.0047745358"
       smooth_angles="0"
       helper_size="0"
       simplify_individual_paths="false"
       simplify_just_coalesce="false"
       step="1" /><inkscape:path-effect
       effect="powerstroke"
       id="path-effect5459"
       is_visible="true"
       lpeversion="1"
       offset_points="0.5,0"
       not_jump="true"
       sort_points="true"
       interpolator_type="CentripetalCatmullRom"
       interpolator_beta="0.75"
       start_linecap_type="round"
       linejoin_type="spiro"
       miter_limit="4"
       scale_width="1"
       end_linecap_type="round" /><inkscape:path-effect
       effect="simplify"
       id="path-effect5457"
       is_visible="true"
       lpeversion="1"
       steps="1"
       threshold="0.0047745358"
       smooth_angles="0"
       helper_size="0"
       simplify_individual_paths="false"
       simplify_just_coalesce="false"
       step="1" /><inkscape:path-effect
       effect="powerstroke"
       id="path-effect3375"
       is_visible="true"
       lpeversion="1"
       offset_points="1.4532903,0.83425869"
       not_jump="true"
       sort_points="true"
       interpolator_type="CentripetalCatmullRom"
       interpolator_beta="0.75"
       start_linecap_type="round"
       linejoin_type="spiro"
       miter_limit="4"
       scale_width="1"
       end_linecap_type="round" /><inkscape:path-effect
       effect="simplify"
       id="path-effect3373"
       is_visible="true"
       lpeversion="1"
       steps="1"
       threshold="0.0047745358"
       smooth_angles="0"
       helper_size="0"
       simplify_individual_paths="false"
       simplify_just_coalesce="false"
       step="1" /><rect
       x="19.364491"
       y="9.4100437"
       width="143.43182"
       height="21.686634"
       id="rect2924" /><filter
       style="color-interpolation-filters:sRGB"
       inkscape:label="Dark and Glow"
       id="filter5522"
       x="-0.33394173"
       y="-1.2646728"
       width="1.6678835"
       height="3.5293453"
       inkscape:menu-tooltip="Darkens the edge with an inner blur and adds a flexible glow"
       inkscape:menu="Shadows and Glows"><feBlend
         in2="BackgroundImage"
         mode="multiply"
         result="fbSourceGraphic"
         id="feBlend5520" /><feColorMatrix
         result="fbSourceGraphicAlpha"
         in="fbSourceGraphic"
         values="0 0 0 -1 0 0 0 0 -1 0 0 0 0 -1 0 0 0 0 1 0"
         id="feColorMatrix5524" /><feBlend
         in2="BackgroundImage"
         id="feBlend5526"
         mode="multiply"
         result="fbSourceGraphic"
         in="fbSourceGraphic" /><feColorMatrix
         result="fbSourceGraphicAlpha"
         in="fbSourceGraphic"
         values="0 0 0 -1 0 0 0 0 -1 0 0 0 0 -1 0 0 0 0 1 0"
         id="feColorMatrix5576" /><feGaussianBlur
         id="feGaussianBlur5578"
         stdDeviation="5"
         result="result6"
         in="fbSourceGraphic" /><feComposite
         in2="result6"
         id="feComposite5580"
         result="result8"
         in="fbSourceGraphic"
         operator="atop" /><feComposite
         in2="fbSourceGraphicAlpha"
         id="feComposite5582"
         result="result9"
         operator="over"
         in="result8" /><feColorMatrix
         id="feColorMatrix5584"
         values="1 0 0 0 0 0 1 0 0 0 0 0 1 0 0 0 0 0 1 0 "
         result="result10" /><feBlend
         in2="result6"
         id="feBlend5586"
         in="result10"
         mode="normal" /></filter><radialGradient
       inkscape:collect="always"
       xlink:href="#linearGradient5680"
       id="radialGradient5682"
       cx="254.749"
       cy="49.072572"
       fx="254.749"
       fy="49.072572"
       r="56.276199"
       gradientTransform="matrix(1,0,0,0.31651604,0,33.540316)"
       gradientUnits="userSpaceOnUse" /><radialGradient
       inkscape:collect="always"
       xlink:href="#linearGradient5690"
       id="radialGradient12184"
       cx="207.15347"
       cy="27.503767"
       fx="207.15347"
       fy="27.503767"
       r="10.927457"
       gradientTransform="matrix(1,0,0,1.0156333,0,-0.5061968)"
       gradientUnits="userSpaceOnUse" /><linearGradient
       inkscape:collect="always"
       xlink:href="#linearGradient5714"
       id="linearGradient947"
       x1="195.95412"
       y1="49.064247"
       x2="310.54346"
       y2="49.064247"
       gradientUnits="userSpaceOnUse" /><linearGradient
       inkscape:collect="always"
       xlink:href="#linearGradient12087"
       id="linearGradient12089"
       x1="194.52846"
       y1="32.379435"
       x2="216.11883"
       y2="32.379435"
       gradientUnits="userSpaceOnUse" /><filter
       inkscape:collect="always"
       style="color-interpolation-filters:sRGB"
       id="filter935"
       x="-0.025520169"
       y="-0.085129062"
       width="1.0510547"
       height="1.1702809"><feGaussianBlur
         inkscape:collect="always"
         stdDeviation="1.1641902"
         id="feGaussianBlur937" /></filter><filter
       inkscape:collect="always"
       style="color-interpolation-filters:sRGB"
       id="filter939"
       x="-0.015043569"
       y="-0.015751492"
       width="1.0300871"
       height="1.0305607"><feGaussianBlur
         inkscape:collect="always"
         stdDeviation="0.080210308"
         id="feGaussianBlur941" /></filter></defs><g
     inkscape:groupmode="layer"
     id="layer2"
     inkscape:label="logo"
     transform="translate(-110.73151,-20.292576)"><path
       id="path-1"
       style="display:inline;mix-blend-mode:darken;fill:url(#linearGradient947);fill-opacity:1;fill-rule:nonzero;stroke:url(#radialGradient5682);stroke-width:0.264583;stroke-dasharray:none;stroke-opacity:1;filter:url(#filter935)"
       d="m 310.39477,31.861379 v 5.17e-4 c -2.90822,3.203178 -0.97502,1.202263 -2.779,5.79255 -2.20337,1.828225 -3.85724,6.16143 -5.81868,10.775616 -1.74273,1.492396 3.24784,6.962369 3.06059,7.416933 -0.0101,0.01887 -0.0205,0.03789 -0.0305,0.05684 -0.026,0.09568 -0.0677,0.197864 -0.12816,0.304891 -0.0295,0.05224 -0.0589,0.104335 -0.0884,0.15658 -0.23029,0.34336 -0.50255,0.66709 -0.82837,0.922941 -0.0117,-0.0033 -0.0233,-0.0066 -0.0351,-0.01034 -0.0161,0.252704 -0.0544,0.402777 -0.0842,0.476974 -0.002,0.0041 -0.003,0.0034 -0.004,0.0067 -1.25574,0.613642 -0.89721,1.162032 -2.08405,1.54287 -3.65693,4.20723 -11.54479,2.978694 -14.71802,1.460506 -0.0282,0.0066 -0.056,0.01364 -0.0842,0.02015 -15.32951,-3.206097 -14.32797,8.479155 -31.79648,-0.144744 -14.25487,-4.04407 -30.25068,8.599368 -37.78195,4.914097 -2.82888,-0.178681 -23.16277,-6.201632 -19.27153,-12.837431 3.37639,-3.118164 24.78162,-7.673278 19.90672,-10.783836 -2.39448,-1.21544 -12.28615,1.412239 -12.28615,1.412239 29.59037,-3.030878 -7.62057,4.607364 -9.78691,10.973187 -0.61431,7.005902 17.80997,12.268368 28.51909,11.417969 4.33926,0.949433 14.38473,-3.920042 19.03343,-5.382634 4.76665,-0.594586 18.34286,1.164391 18.44408,3.437488 7.07462,2.122973 16.71353,-5.276292 29.09216,-1.880921 -3.57442,-0.730741 -5.48615,-0.94593 0.16278,0.04651 -2.90509,-0.527529 7.84312,0.762755 8.4918,0.587459 1.70904,-0.123397 2.95185,-0.880304 4.15996,-2.032955 0.23672,-0.227594 0.48206,-0.446171 0.73225,-0.658874 4.69536,-5.785054 -6.39519,-11.396859 2.30844,-19.404128 0.21272,-1.32295 1.40338,-3.483627 1.744,-5.905955 1.59628,-1.955364 2.05828,-2.688957 1.95026,-2.68149 z m -6.55515,23.367566 c 4.2e-4,0.0033 -6.5e-4,0.0066 0.002,0.01033 0.003,0.02258 0.005,0.04512 0.007,0.0677 0.007,-0.03016 0.004,-0.04407 0.0331,0.03307 0.004,0.01022 -0.007,-0.02105 -0.009,-0.03152 -0.008,-0.02769 -0.0188,-0.05378 -0.0315,-0.07958 z"
       sodipodi:nodetypes="ccccccsccccccccccccccccccccccccccccccccc" /><path
       id="text2922"
       style="font-size:16px;font-family:sans-serif;-inkscape-font-specification:'sans-serif, Normal';white-space:pre;shape-inside:url(#rect2924);fill:#ffffff;stroke-width:11.6893;stroke-dasharray:none"
       d="M 125.17166,20.292576 V 38.92339 h 2.20295 V 20.292576 Z m 6.81291,0 v 2.789784 h 2.20295 v -2.789784 z m 20.21125,0 V 38.92339 h 2.21521 v -6.549459 l 6.8129,6.549459 h 2.87344 l -7.41147,-7.13629 7.11233,-6.274028 h -2.81377 l -6.57343,5.783091 V 20.292576 Z m 121.22008,0 c -1.50865,0 -2.61036,0.343349 -3.30469,1.029817 -0.69447,0.678498 -1.04182,1.764062 -1.04182,3.256748 v 0.933931 h -2.10733 v 1.712278 h 2.10733 v 11.69804 h 2.21522 V 27.22535 h 3.62781 v -1.712278 h -3.62781 v -1.18539 c 0,-0.830149 0.15158,-1.404974 0.45497,-1.724269 0.3113,-0.319295 0.8621,-0.478955 1.65235,-0.478955 h 2.10733 v -1.831882 z m -37.23766,1.412885 v 3.807627 h -1.61666 v 1.712279 h 1.61666 v 7.279882 c 0,1.676276 0.32304,2.833664 0.96962,3.472246 0.64644,0.630605 1.81995,0.945912 3.5202,0.945912 h 2.26315 v -1.843872 h -2.26315 c -0.91798,0 -1.52857,-0.155655 -1.83189,-0.466965 -0.29535,-0.31131 -0.44301,-1.013756 -0.44301,-2.107321 v -7.279882 h 4.53805 v -1.712279 h -4.53805 V 21.705452 Z M 117.4725,25.189697 c -2.09135,0 -3.73974,0.626625 -4.94506,1.879842 -1.19734,1.253217 -1.79593,2.973415 -1.79593,5.160562 0,2.155207 0.59457,3.867659 1.78394,5.136855 1.18936,1.269178 2.79396,1.90355 4.81347,1.90355 0.74236,0 1.4408,-0.07186 2.09534,-0.215506 0.66253,-0.143682 1.30116,-0.359138 1.9158,-0.646501 v -2.035407 c -0.62263,0.343242 -1.24923,0.602489 -1.87984,0.778102 -0.62261,0.167612 -1.25324,0.25146 -1.89182,0.25146 -1.42883,0 -2.53844,-0.450946 -3.32868,-1.352944 -0.79025,-0.909975 -1.18539,-2.183241 -1.18539,-3.819609 0,-1.636367 0.39514,-2.905628 1.18539,-3.807618 0.79024,-0.909992 1.89985,-1.364934 3.32868,-1.364934 0.63858,0 1.26921,0.08784 1.89182,0.263449 0.63061,0.167629 1.25721,0.423134 1.87984,0.766376 v -2.059378 c -0.60666,-0.279378 -1.23327,-0.487097 -1.87984,-0.622793 -0.64656,-0.143682 -1.30922,-0.215506 -1.98772,-0.215506 z m 27.10807,0 c -2.09135,0 -3.73974,0.626625 -4.94506,1.879842 -1.19735,1.253217 -1.79593,2.973415 -1.79593,5.160562 0,2.155207 0.59459,3.867659 1.78394,5.136855 1.18937,1.269178 2.79395,1.90355 4.81347,1.90355 0.74235,0 1.44079,-0.07186 2.09534,-0.215506 0.66254,-0.143682 1.30116,-0.359138 1.9158,-0.646501 v -2.035407 c -0.62262,0.343242 -1.24923,0.602489 -1.87984,0.778102 -0.62263,0.167612 -1.25325,0.25146 -1.89182,0.25146 -1.42883,0 -2.53844,-0.450946 -3.32867,-1.352944 -0.79026,-0.909975 -1.18539,-2.183241 -1.18539,-3.819609 0,-1.636367 0.39513,-2.905628 1.18539,-3.807618 0.79023,-0.909992 1.89984,-1.364934 3.32867,-1.364934 0.63857,0 1.26919,0.08784 1.89182,0.263449 0.63061,0.167629 1.25722,0.423134 1.87984,0.766376 v -2.059378 c -0.60666,-0.279378 -1.23327,-0.487097 -1.87984,-0.622793 -0.64657,-0.143682 -1.30922,-0.215506 -1.98772,-0.215506 z m 26.22209,0 c -1.92373,0 -3.43247,0.622612 -4.52604,1.867852 -1.08559,1.24524 -1.62838,2.969435 -1.62838,5.172552 0,2.195124 0.54279,3.919336 1.62838,5.172553 1.09357,1.245231 2.60231,1.867852 4.52604,1.867852 1.91574,0 3.42048,-0.622621 4.51406,-1.867852 1.09358,-1.253226 1.64037,-2.977429 1.64037,-5.172553 0,-2.203117 -0.54679,-3.927312 -1.64037,-5.172552 -1.09358,-1.24524 -2.59832,-1.867852 -4.51406,-1.867852 z m 16.27204,0 c -0.93392,0 -1.76024,0.199709 -2.47866,0.598822 -0.71041,0.399121 -1.32903,1.001716 -1.85586,1.807918 V 25.51308 h -2.21494 v 13.410319 h 2.21494 v -7.579284 c 0,-1.309088 0.34334,-2.342877 1.02982,-3.101185 0.68647,-0.758325 1.62441,-1.137437 2.81376,-1.137437 0.9898,0 1.7323,0.315306 2.2272,0.945911 0.4949,0.630605 0.74213,1.58053 0.74213,2.849725 v 8.02227 h 2.20322 v -8.094193 c 0,-1.85189 -0.39513,-3.252769 -1.18539,-4.20266 -0.79023,-0.957869 -1.95564,-1.436849 -3.49622,-1.436849 z m 64.36972,0 c -2.01155,0 -3.61212,0.646641 -4.80148,1.939775 -1.18139,1.285149 -1.77196,3.025372 -1.77196,5.220504 0,2.123283 0.6226,3.807446 1.86785,5.052678 1.25324,1.245231 2.94937,1.867852 5.08864,1.867852 0.8541,0 1.69618,-0.08758 2.52634,-0.263186 0.83017,-0.175597 1.64046,-0.431127 2.43071,-0.766376 v -2.083349 c -0.78227,0.415083 -1.57254,0.726384 -2.37077,0.93393 -0.79026,0.207537 -1.6083,0.311129 -2.45441,0.311129 -1.46078,0 -2.6024,-0.395149 -3.42458,-1.18539 -0.81421,-0.798233 -1.26914,-1.955621 -1.36492,-3.472254 h 10.12959 v -1.077513 c 0,-1.995555 -0.52689,-3.57213 -1.58042,-4.729559 -1.0457,-1.165406 -2.47058,-1.748249 -4.27459,-1.748249 z m 32.54381,0 c -1.06154,4.1e-5 -1.9636,0.199742 -2.70588,0.598822 -0.74237,0.391136 -1.34494,0.993731 -1.80792,1.807918 v -2.083349 h -2.21521 v 13.410319 h 2.21521 v -7.064368 c 0,-1.516633 0.33133,-2.678026 0.99386,-3.484244 0.67051,-0.814187 1.62818,-1.221351 2.87343,-1.221351 0.35123,0 0.67053,0.03576 0.95789,0.107621 0.29536,0.06386 0.56687,0.167719 0.81433,0.311401 l -0.0123,-2.262894 c -0.2235,-0.03988 -0.42722,-0.0679 -0.6108,-0.0839 -0.18351,-0.02398 -0.35082,-0.03593 -0.5024,-0.03593 z m -152.00366,0.323391 v 13.410319 h 2.20295 V 25.513088 Z m 88.46024,0 v 8.1179 c 0,1.843913 0.39916,3.245048 1.19738,4.202933 0.79823,0.957868 1.96764,1.436585 3.50821,1.436585 0.93392,0 1.75226,-0.195432 2.45468,-0.586568 0.71044,-0.399105 1.33304,-1.005705 1.86785,-1.819909 v 2.059378 h 2.20323 V 25.513088 h -2.20323 v 7.603256 c 0,1.309095 -0.34735,2.342596 -1.0418,3.10092 -0.68649,0.758309 -1.62442,1.137702 -2.81377,1.137702 -0.9898,0 -1.73202,-0.315307 -2.22693,-0.945912 -0.49489,-0.638574 -0.74239,-1.592528 -0.74239,-2.861707 v -8.034259 z m -49.64215,1.544461 c 1.17339,0 2.10333,0.466957 2.78979,1.400895 0.68649,0.925937 1.02983,2.183183 1.02983,3.771657 0,1.596459 -0.34334,2.857711 -1.02983,3.783647 -0.68646,0.925945 -1.6164,1.388906 -2.78979,1.388906 -1.18936,0 -2.12728,-0.458947 -2.81376,-1.376916 -0.6785,-0.925936 -1.01784,-2.191201 -1.01784,-3.795637 0,-1.604435 0.34336,-2.865678 1.02983,-3.783647 0.68648,-0.925945 1.62039,-1.388905 2.80177,-1.388905 z m 80.66573,0 c 1.0856,0 1.95571,0.359377 2.61026,1.077769 0.66253,0.718415 1.0016,1.680099 1.01755,2.885422 l -7.85444,0.01195 c 0.11172,-1.261202 0.53465,-2.238906 1.26903,-2.933366 0.74235,-0.694453 1.72832,-1.041807 2.9576,-1.041807 z m 9.75827,8.824607 v 3.041251 h 2.5266 v -3.041251 z"
       inkscape:label="text2922"
       sodipodi:nodetypes="ccccccccccccccccccccccscsccccccccccscsccscccccscsccscsccccccscsssccccscscsccccsscscsccccscscsccccsscscscssssccccccscsssccscsscscsscccscccscsscccccccscsccccccccccccsssccccccscscsccscscscscscccccccccccc" /><path
       id="path7181"
       style="font-size:16px;font-family:sans-serif;-inkscape-font-specification:'sans-serif, Normal';white-space:pre;shape-inside:url(#rect2924);fill:url(#radialGradient12184);fill-opacity:1;stroke:url(#linearGradient12089);stroke-width:0.264583;stroke-dasharray:none;stroke-opacity:1;filter:url(#filter939)"
       d="m 205.72623,21.413438 c -6.02225,0.796159 -9.25236,4.10673 -10.36836,6.733439 -0.55296,1.341785 -0.82941,2.753037 -0.82941,4.232817 0,1.536936 0.27218,2.976307 0.81701,4.318082 0.54486,1.333644 1.33803,2.509114 2.37866,3.525366 1.04089,1.016507 2.22841,1.788593 3.56206,2.317172 1.3334,0.536703 2.75271,0.805118 4.2571,0.805118 0,0 10.55994,-0.922331 3.43276,-0.875845 -3.3796,-0.666958 -7.26737,-0.526348 -9.6727,-2.782841 -0.4226,-0.341295 -2.72686,-2.750834 -2.11666,-3.139343 -0.0863,-0.174262 -0.16781,-0.351633 -0.2434,-0.532784 -1.97619,-5.612362 1.43177,-11.877945 5.66785,-13.162499 11.15761,-2.559544 14.91048,6.650132 10.19522,12.76769 -0.19586,0.194188 -0.41468,0.358919 -0.63976,0.518314 -2.67092,0.549018 -2.003,-1.901691 -2.003,-1.901691 -0.44273,-2.577611 0.41143,-4.578331 0.40518,-7.028514 h -1.74408 v 1.597835 c -0.47979,-0.618037 -1.03694,-1.077324 -1.67122,-1.37821 -0.6343,-0.309019 -1.37053,-0.463538 -2.20813,-0.463538 -1.39057,0 -2.52462,0.507956 -3.4029,1.524455 -0.87823,1.016433 -1.31723,2.337704 -1.31723,3.964099 0,1.62633 0.4347,2.948125 1.30483,3.964616 0.87825,1.008374 2.0166,1.512569 3.4153,1.512569 0.8376,0 1.57009,-0.145981 2.19625,-0.438733 1.82566,-0.938314 1.6831,-2.449246 1.6831,0.487309 2.27695,-0.04878 4.06172,-0.691029 5.35471,-1.927014 1.29273,-1.236059 1.93942,-2.923573 1.93942,-5.062223 0,-1.000224 -0.16255,-1.968008 -0.48783,-2.903182 -0.31716,-0.935181 -0.78071,-1.801352 -1.39061,-2.598291 -1.00024,-1.300945 -2.24017,-2.305256 -3.72019,-3.012736 -1.47189,-0.707481 -3.07005,-1.060917 -4.79402,-1.060917 z m -3.7486,10.944553 c 0,0 0.96235,-4.960808 5.78568,-2.613277 0.58552,0.66683 0.8785,1.56937 0.8785,2.707845 -0.15024,3.908098 -5.19199,4.278705 -5.9371,2.550232 -0.96022,-2.33116 -0.85985,-2.430238 -0.72708,-2.6448 z"
       sodipodi:nodetypes="ccscsccccccccccccccssscscccscccccccccc" /></g></svg>
