<?xml version="1.0" encoding="UTF-8" standalone="no"?>
<!-- Created with Inkscape (http://www.inkscape.org/) -->

<svg
   width="16"
   height="16"
   viewBox="0 0 4.2333333 4.2333333"
   version="1.1"
   id="svg1"
   xmlns="http://www.w3.org/2000/svg"
   xmlns:svg="http://www.w3.org/2000/svg">
  <defs
     id="defs1" />
  <g
     id="layer1">
    <path
       id="rect2"
       style="opacity:1;fill:#ffffff;fill-opacity:0;stroke:#ffffff;stroke-width:0.137;stroke-dasharray:none;stroke-opacity:1"
       d="m 0.57368143,0.09304426 c -0.0118033,-4.3024e-4 -0.0180318,0.0029474 -0.0180257,0.0100489 l 0.002576,3.00410444 C 0.55833193,3.2208434 2.1650878,2.2542684 2.2597241,2.2552881 l 0.6064348,0.00618 0.2362647,1.3404827 C 3.1163459,3.7168231 2.6989362,4.1237665 2.9569309,4.1237665 h 0.5233878 c 0.096668,0 0.3308665,-0.1713606 0.2961358,-0.3115423 l -0.1339049,-0.5388185 -0.02382,-1.0034296 0.1602997,0.00155 c 0.094635,0.00102 0.3590185,-0.113638 0.3598694,-0.227279 L 4.145337,1.1884677 C 4.1461872,1.074827 3.8736662,0.91891694 3.7790296,0.91789734 L 2.2597241,0.90088999 C 2.1710033,0.8999342 0.75073113,0.09949752 0.57368143,0.09304426 Z M 0.48226559,1.2441278 C 0.260788,1.2585115 0.0876324,1.4758664 0.08763246,1.7249701 c 2e-8,0.2657109 0.18794422,0.4748252 0.43969727,0.4808423 0.0256603,6.131e-4 0,-0.9616846 0,-0.9616846 -0.0151568,-8.974e-4 -0.0302989,-9.589e-4 -0.0450641,0 z" />
  </g>
</svg>
